<svg width="295" height="175" viewBox="0 0 295 175" fill="none" xmlns="http://www.w3.org/2000/svg">
<g clip-path="url(#clip0)">
<path d="M119 97.3934C119 44.7409 165.72 0 217.143 0C264.361 0 295.016 34.5988 295.016 75.6327C295.016 117.164 267.571 136.678 246.065 136.678C231.235 136.678 223.563 127.788 222.087 118.384L221.846 116.907C213.195 129.023 199.601 136.678 186.248 136.678C162.27 136.678 147.937 119.122 147.937 95.1467C147.937 62.0243 175.125 34.5828 203.806 34.5828C218.636 34.5828 229.518 41.7561 234.702 51.144L237.414 38.0491H265.34L252.741 98.3723C252.501 99.8487 252.003 102.818 252.003 104.31C252.003 111.965 255.951 115.431 261.151 115.431C270.797 115.431 284.391 103.812 284.391 75.6327C284.391 36.5887 257.701 9.64466 216.164 9.64466C169.444 9.64466 128.662 50.6786 128.662 96.8959C128.662 135.699 158.322 165.612 198.365 165.612C215.169 165.612 230.256 160.429 243.609 152.02L248.793 159.434C233.466 169.319 215.667 175 197.37 175C152.367 175 119 141.139 119 97.3934ZM224.558 98.3723L230.737 69.4544C228.025 64.0142 221.589 56.8569 210.707 56.8569C190.934 56.8569 176.602 74.6538 176.602 92.6914C176.602 105.546 184.514 114.436 197.113 114.436C210.21 114.436 219.117 105.786 224.558 98.3723Z" fill="#4DE800"/>
</g>
<rect x="2" y="65" width="160" height="108" rx="8" fill="white" stroke="#3A5C91" stroke-width="4"/>
<path d="M12 77C12 77 49.5728 129.433 84 128C116.545 126.646 150 77 150 77" stroke="#3A5C91" stroke-width="4"/>
<defs>
<clipPath id="clip0">
<rect width="176" height="175" fill="white" transform="translate(119)"/>
</clipPath>
</defs>
</svg>
