<svg width="192" height="220" viewBox="0 0 192 220" fill="none" xmlns="http://www.w3.org/2000/svg">
<g clip-path="url(#clip0)">
<path d="M108.86 217.69V216.19H11.84C9.39 216.19 7.19 215.2 5.59 213.6C3.99 212 3 209.8 3 207.35V12.45C3 9.99999 3.99 7.79998 5.59 6.19999C7.19 4.59999 9.39 3.60999 11.84 3.60999H108.86C111.31 3.60999 113.51 4.59999 115.11 6.19999C116.71 7.79998 117.7 10.01 117.7 12.45V207.35C117.7 209.8 116.71 212 115.11 213.6C113.51 215.2 111.31 216.19 108.86 216.19V217.69V219.19C115.4 219.19 120.7 213.89 120.7 207.35V12.45C120.7 5.90999 115.4 0.609985 108.86 0.609985H11.84C5.3 0.609985 0 5.90999 0 12.45V207.35C0 213.89 5.3 219.19 11.84 219.19H108.86V217.69Z" fill="#395C91"/>
<path d="M101.93 12.25H89.46C86.84 12.25 84.71 14.38 84.71 17C84.71 20.92 81.53 24.1 77.61 24.1H43.09C39.17 24.1 35.99 20.92 35.99 17C35.99 14.38 33.86 12.25 31.24 12.25H18.77C14.42 12.25 10.9 15.78 10.9 20.12V194.68C10.9 199.03 14.42 202.55 18.77 202.55H101.92C106.27 202.55 109.79 199.03 109.79 194.68V20.13C109.8 15.78 106.27 12.25 101.93 12.25Z" fill="#682FFF"/>
<path d="M101.93 12.25V10.75H89.46C86.01 10.75 83.21 13.55 83.21 17C83.21 18.55 82.59 19.94 81.57 20.96C80.55 21.98 79.16 22.6 77.61 22.6H43.09C41.54 22.6 40.15 21.98 39.13 20.96C38.11 19.94 37.49 18.55 37.49 17C37.49 13.55 34.69 10.75 31.24 10.75H18.77C13.59 10.75 9.39999 14.95 9.39999 20.12V194.68C9.39999 199.86 13.6 204.05 18.77 204.05H101.92C107.1 204.05 111.29 199.85 111.29 194.68V20.13C111.29 14.95 107.09 10.76 101.92 10.76V12.25V13.75C103.68 13.75 105.27 14.46 106.43 15.62C107.59 16.78 108.3 18.36 108.3 20.13V194.69C108.3 196.45 107.59 198.04 106.43 199.2C105.27 200.36 103.69 201.07 101.92 201.07H18.77C17.01 201.07 15.42 200.36 14.26 199.2C13.1 198.04 12.39 196.46 12.39 194.69V20.13C12.39 18.37 13.1 16.78 14.26 15.62C15.42 14.46 17 13.75 18.77 13.75H31.23C32.13 13.75 32.93 14.11 33.53 14.7C34.12 15.29 34.48 16.09 34.48 17C34.48 21.75 38.33 25.6 43.08 25.6H77.6C82.35 25.6 86.2 21.75 86.2 17C86.2 15.21 87.65 13.76 89.45 13.75H101.91V12.25H101.93Z" fill="#395C91"/>
<path d="M47.17 16.96H71.42C72.25 16.96 72.92 16.29 72.92 15.46C72.92 14.63 72.25 13.96 71.42 13.96H47.17C46.34 13.96 45.67 14.63 45.67 15.46C45.67 16.28 46.34 16.96 47.17 16.96Z" fill="#395C91"/>
<path d="M190.32 56.57C190.32 86.98 165.67 111.64 135.25 111.64C104.83 111.64 80.18 86.98 80.18 56.57C80.18 26.16 104.84 1.5 135.25 1.5C165.66 1.5 190.32 26.16 190.32 56.57Z" fill="#4DE800"/>
<path d="M190.32 56.57H188.82C188.82 71.37 182.83 84.75 173.13 94.45C163.43 104.15 150.05 110.14 135.25 110.14C120.45 110.14 107.07 104.15 97.37 94.45C87.67 84.75 81.68 71.37 81.68 56.57C81.68 41.77 87.67 28.39 97.37 18.69C107.07 8.99 120.45 3 135.25 3C150.05 3 163.43 8.99 173.13 18.69C182.83 28.39 188.82 41.77 188.82 56.57H190.32H191.82C191.82 25.33 166.49 0 135.25 0C104.01 0 78.68 25.33 78.68 56.57C78.68 87.81 104.01 113.14 135.25 113.14C166.49 113.14 191.82 87.81 191.82 56.57H190.32Z" fill="#395C91"/>
<path d="M95.39 69.05V64.4C106.82 55.94 110.18 53.05 110.18 49.61C110.18 47.18 107.96 45.97 105.66 45.97C102.48 45.97 100.05 47.23 98.16 49.2L94.77 45.26C97.49 42.12 101.64 40.69 105.53 40.69C111.48 40.69 116.21 44.04 116.21 49.61C116.21 54.38 112.27 58.53 105.03 63.81H116.42V69.05H95.39Z" fill="white"/>
<path d="M132.96 69.05V63.27H119.6V58.58L130.7 41.11H138.91V58.03H142.51V63.27H138.91V69.05H132.96ZM132.96 46.39L125.42 58.03H132.96V46.39Z" fill="white"/>
<path d="M143.56 69.89L153.49 40.28H157.34L147.41 69.89H143.56Z" fill="white"/>
<path d="M162.37 69.05L172.38 46.35H158.3V41.11H179.29V45.26L168.9 69.05H162.37Z" fill="white"/>
<path d="M90.95 82.61C90.95 82.61 90.07 92.95 83.7 98.89C81.06 101.35 78.57 102.98 76.56 104.04C75.32 104.69 75.68 106.56 77.07 106.72C82.83 107.41 92.12 107.97 98.65 105.59C105.88 102.95 108.54 98.88 108.54 98.88" fill="#4DE800"/>
<path d="M89.46 82.48V82.5C89.44 82.73 89.18 85.27 88.19 88.39C87.21 91.51 85.48 95.19 82.68 97.8C80.14 100.16 77.77 101.71 75.86 102.72C75.36 102.98 74.95 103.38 74.69 103.84C74.43 104.3 74.31 104.8 74.31 105.29C74.31 105.97 74.53 106.63 74.98 107.18C75.42 107.73 76.12 108.14 76.9 108.22C79.54 108.54 82.92 108.83 86.46 108.83C90.77 108.83 95.32 108.41 99.17 107.01C106.76 104.24 109.68 99.91 109.8 99.72C110.25 99.03 110.06 98.1 109.37 97.64C108.68 97.19 107.75 97.38 107.29 98.07L107.75 98.37L107.29 98.06V98.07L107.75 98.37L107.29 98.06C107.25 98.11 104.78 101.76 98.13 104.19C94.83 105.4 90.55 105.83 86.45 105.83C83.07 105.83 79.8 105.55 77.25 105.24H77.24L77.21 105.34L77.3 105.28L77.24 105.24L77.21 105.34L77.3 105.28L77.28 105.3L77.31 105.29V105.28L77.29 105.3L77.32 105.29H77.22L77.3 105.34L77.32 105.29H77.22L77.3 105.34L77.18 105.27L77.28 105.37L77.3 105.34L77.18 105.27L77.28 105.37L77.23 105.32L77.27 105.38L77.28 105.37L77.23 105.32L77.27 105.38C79.39 104.26 81.99 102.55 84.73 100C88.21 96.75 90.09 92.45 91.16 88.98C92.22 85.5 92.45 82.83 92.46 82.76C92.53 81.93 91.92 81.21 91.09 81.14C90.25 81.04 89.53 81.66 89.46 82.48Z" fill="#395C91"/>
</g>
<defs>
<clipPath id="clip0">
<rect width="191.82" height="219.19" fill="white"/>
</clipPath>
</defs>
</svg>
