<svg width="242" height="147" viewBox="0 0 242 147" fill="none" xmlns="http://www.w3.org/2000/svg">
<path fill-rule="evenodd" clip-rule="evenodd" d="M231.596 118.261H68.4035C63.6184 118.261 59.7358 114.371 59.7358 109.577V10.4232C59.7358 5.62899 63.6184 1.73914 68.4035 1.73914H231.591C236.382 1.73914 240.264 5.62899 240.264 10.4232V109.571C240.264 114.371 236.382 118.261 231.596 118.261Z" fill="#4DE800"/>
<path d="M231.596 120H68.4035C62.6694 120 58 115.322 58 109.577V10.4232C58 4.67826 62.6694 0 68.4035 0H231.591C237.331 0 242 4.67826 242 10.4232V109.571C242 115.322 237.331 120 231.596 120ZM68.4035 3.47826C64.5847 3.47826 61.4717 6.5971 61.4717 10.4232V109.571C61.4717 113.403 64.5847 116.522 68.4035 116.522H231.591C235.415 116.522 238.523 113.403 238.523 109.577V10.4232C238.528 6.5971 235.415 3.47826 231.596 3.47826H68.4035Z" fill="#3A5C91"/>
<circle cx="152.5" cy="60.5" r="48.5" fill="#682FFF"/>
<circle cx="153.5" cy="60.5" r="47" fill="#682FFF" stroke="#3A5C91" stroke-width="3"/>
<path fill-rule="evenodd" clip-rule="evenodd" d="M173.596 145.261H10.4035C5.61835 145.261 1.73584 141.371 1.73584 136.577V37.4232C1.73584 32.629 5.61835 28.7391 10.4035 28.7391H173.591C178.382 28.7391 182.264 32.629 182.264 37.4232V136.571C182.264 141.371 178.382 145.261 173.596 145.261Z" fill="white"/>
<path d="M173.596 147H10.4035C4.66943 147 0 142.322 0 136.577V37.4232C0 31.6783 4.66943 27 10.4035 27H173.591C179.331 27 184 31.6783 184 37.4232V136.571C184 142.322 179.331 147 173.596 147ZM10.4035 30.4783C6.58465 30.4783 3.4717 33.5971 3.4717 37.4232V136.571C3.4717 140.403 6.58465 143.522 10.4035 143.522H173.591C177.415 143.522 180.523 140.403 180.523 136.577V37.4232C180.528 33.5971 177.415 30.4783 173.596 30.4783H10.4035Z" fill="#3A5C91"/>
<path fill-rule="evenodd" clip-rule="evenodd" d="M150.44 102.942C146.135 102.942 142.328 105.087 140.025 108.368C137.722 105.087 133.915 102.942 129.61 102.942C122.58 102.942 116.88 108.652 116.88 115.696C116.88 122.739 122.58 128.449 129.61 128.449C133.915 128.449 137.722 126.304 140.025 123.023C142.328 126.304 146.135 128.449 150.44 128.449C157.47 128.449 163.17 122.739 163.17 115.696C163.17 108.652 157.47 102.942 150.44 102.942Z" fill="#4DE800"/>
<path d="M150.44 130.188C146.488 130.188 142.733 128.559 140.025 125.748C138.191 127.655 135.865 129.035 133.302 129.713C132.37 129.957 131.427 129.4 131.178 128.472C130.935 127.545 131.491 126.594 132.416 126.345C134.91 125.684 137.109 124.148 138.602 122.02C138.926 121.557 139.458 121.284 140.019 121.284C140.586 121.284 141.113 121.562 141.437 122.02C143.497 124.954 146.859 126.704 150.434 126.704C156.498 126.704 161.428 121.765 161.428 115.69C161.428 110.275 157.569 105.707 152.246 104.826C151.904 104.768 151.603 104.617 151.366 104.403C151.094 104.577 150.776 104.675 150.429 104.675C146.859 104.675 143.497 106.426 141.431 109.365C141.107 109.829 140.575 110.101 140.014 110.101C139.447 110.101 138.92 109.829 138.596 109.365C136.536 106.432 133.169 104.675 129.598 104.675C123.535 104.675 118.605 109.614 118.605 115.69C118.605 120.014 121.145 123.957 125.079 125.736C125.953 126.13 126.341 127.162 125.947 128.038C125.554 128.913 124.524 129.301 123.65 128.907C118.489 126.571 115.145 121.383 115.145 115.696C115.145 107.701 121.631 101.203 129.61 101.203C133.562 101.203 137.317 102.832 140.025 105.643C142.733 102.832 146.488 101.203 150.44 101.203C150.886 101.203 151.291 101.371 151.603 101.649C151.95 101.423 152.384 101.325 152.824 101.4C159.825 102.559 164.906 108.577 164.906 115.696C164.906 123.684 158.419 130.188 150.44 130.188Z" fill="#3A5C91"/>
<path d="M74.0629 98.3043H10.4151C9.45461 98.3043 8.67926 97.5275 8.67926 96.5652C8.67926 95.6029 9.45461 94.8261 10.4151 94.8261H74.0629C75.0234 94.8261 75.7988 95.6029 75.7988 96.5652C75.7988 97.5275 75.0234 98.3043 74.0629 98.3043Z" fill="#3A5C91"/>
<path d="M46.8679 111.638H10.4151C9.45461 111.638 8.67926 110.861 8.67926 109.899C8.67926 108.936 9.45461 108.159 10.4151 108.159H46.8679C47.8284 108.159 48.6038 108.936 48.6038 109.899C48.6038 110.861 47.8284 111.638 46.8679 111.638Z" fill="#3A5C91"/>
<path d="M182.264 53.6667H1.73584V78.5942H182.264V53.6667Z" fill="#4DE800"/>
<path d="M182.264 80.3333H1.73585C0.775346 80.3333 0 79.5565 0 78.5942V53.6667C0 52.7044 0.775346 51.9276 1.73585 51.9276H53.1691C54.1296 51.9276 54.9049 52.7044 54.9049 53.6667C54.9049 54.629 54.1296 55.4058 53.1691 55.4058H3.4717V76.8551H180.528V55.4058H77.4709C76.5104 55.4058 75.7351 54.629 75.7351 53.6667C75.7351 52.7044 76.5104 51.9276 77.4709 51.9276H182.264C183.225 51.9276 184 52.7044 184 53.6667V78.5942C184 79.5565 183.225 80.3333 182.264 80.3333Z" fill="#3A5C91"/>
</svg>
