<svg width="498" height="498" viewBox="0 0 498 498" fill="none" xmlns="http://www.w3.org/2000/svg">
<circle cx="249" cy="249" r="249" fill="#4DE800"/>
<path d="M82.7343 190.608L46.2225 238.333L21 219.149L77.9306 146H114.684V323.478H82.7343V190.608Z" fill="#682FFF"/>
<path d="M137.234 291.579H169.184V322.276C169.184 329.229 169.662 340.023 160.539 348.419C154.773 353.692 146.127 356.815 137.718 357.051V340.983C145.166 340.983 151.409 336.187 151.409 327.55V323.472H137.234V291.579Z" fill="#682FFF"/>
<path d="M206.9 146H288.817L287.135 176.22H230.682L225.159 209.079C228.523 207.4 235.728 204.042 247.259 204.042C282.089 204.042 304.19 232.824 304.19 265.678C304.19 300.935 278.726 327.797 242.934 327.797C207.62 327.797 185.283 301.896 182.161 270.957H214.111C216.513 285.828 226.841 297.577 242.698 297.577C259.994 297.577 272.246 285.104 272.246 265.201C272.246 247.69 260.473 234.262 242.461 234.262C234.294 234.262 224.686 238.097 218.679 246.971L190.093 239.058L206.9 146Z" fill="#682FFF"/>
<path d="M461.245 326.158C470.498 326.158 478 318.668 478 309.429C478 300.19 470.498 292.7 461.245 292.7C451.991 292.7 444.489 300.19 444.489 309.429C444.489 318.668 451.991 326.158 461.245 326.158Z" fill="#682FFF"/>
<path d="M333.128 302.632C333.128 282.936 333.128 263.239 333.128 243.538C333.128 237.758 332.794 238.218 338.283 238.218C346.208 238.212 354.134 238.207 362.059 238.241C363.736 238.247 363.978 238.546 364.075 240.242C364.133 241.209 364.087 242.18 364.133 243.146C364.156 243.618 364.266 244.095 364.369 244.561C364.502 245.148 365.394 245.47 365.919 245.107C366.449 244.739 366.973 244.36 367.445 243.923C375.382 236.602 384.909 234.4 395.329 235.63C417.85 238.287 431.616 255.643 433.718 275.074C434.801 285.098 433.632 294.811 428.678 303.719C420.205 318.964 407.292 327.141 389.615 327.02C381.816 326.969 374.668 324.565 368.395 319.809C367.497 319.125 366.598 318.435 365.671 317.796C365.147 317.434 364.277 317.854 364.237 318.498C364.156 319.947 364.104 321.396 364.104 322.845C364.093 336.084 364.098 349.322 364.098 362.566C364.098 363.854 364.075 365.148 364.041 366.436C364.012 367.379 363.488 367.896 362.549 367.942C361.743 367.983 360.931 367.988 360.124 367.994C352.521 368 344.918 368 337.315 367.994C336.509 367.994 335.697 367.994 334.89 367.954C333.709 367.896 333.185 367.195 333.162 366.079C333.139 364.785 333.128 363.497 333.128 362.203C333.128 342.346 333.128 322.489 333.128 302.632ZM382.755 261.52C369.83 261.894 363.16 272.607 363.108 281.509C363.044 291.797 372.416 300.872 382.858 300.889C393.174 300.907 402.724 291.585 402.459 281.412C402.194 271.417 394.493 261.468 382.755 261.52Z" fill="#682FFF"/>
<circle cx="420.5" cy="77.5" r="44.5" fill="white"/>
</svg>
