<svg width="53" height="55" viewBox="0 0 53 55" fill="none" xmlns="http://www.w3.org/2000/svg">
<path d="M10.0013 22C10.0013 22 9.54571 1 25.8074 1C42.0691 1 43 22 43 22" stroke="white" stroke-width="2" stroke-miterlimit="10" stroke-linecap="round" stroke-linejoin="round"/>
<path d="M1 30.9963C1 35.1294 3.5684 38.6215 7.11321 39.8813C8.53538 40.3896 10 39.1961 10 37.6269V24.3657C10 22.7965 8.53538 21.6251 7.11321 22.1113C3.54718 23.349 1 26.8632 1 30.9963Z" stroke="white" stroke-width="2" stroke-miterlimit="10" stroke-linecap="round" stroke-linejoin="round"/>
<path d="M43 24.3731V37.6343C43 39.2035 44.4646 40.3749 45.8868 39.8887C49.4528 38.6289 52 35.1368 52 31.0037C52 26.8706 49.4316 23.3785 45.8868 22.1187C44.4646 21.6104 43 22.8039 43 24.3731Z" stroke="white" stroke-width="2" stroke-miterlimit="10" stroke-linecap="round" stroke-linejoin="round"/>
<path d="M30 54C33.3137 54 36 51.3137 36 48C36 44.6863 33.3137 42 30 42C26.6863 42 24 44.6863 24 48C24 51.3137 26.6863 54 30 54Z" stroke="white" stroke-width="2" stroke-miterlimit="10" stroke-linecap="round" stroke-linejoin="round"/>
<path d="M47 38C47 38 46.3486 42.8093 43.3454 45.131C40.3421 47.4527 36 46.9552 36 46.9552" stroke="white" stroke-width="2" stroke-miterlimit="10" stroke-linecap="round" stroke-linejoin="round"/>
</svg>
