<svg width="96" height="101" viewBox="0 0 96 101" fill="none" xmlns="http://www.w3.org/2000/svg">
<g clip-path="url(#clip0)">
<path d="M63.3756 30.132C63.2453 30.3736 62.8843 30.2628 62.9043 29.9911C63.0547 28.0987 63.0247 24.6059 61.0995 22.3612C58.3522 19.1401 56.1965 17.7913 56.1965 17.7913L36.9752 23.1866C36.9752 23.1866 34.639 23.5993 34.4084 26.2969C34.1778 28.9946 34.1778 28.9946 34.1778 28.9946V30.5044C34.1778 31.048 33.6163 31.4204 33.135 31.1788C31.7112 30.4843 29.365 28.7328 29.5655 24.6864C29.8563 18.9086 31.0795 14.8018 35.1704 11.1076C39.2613 7.4135 45.0969 4.36356 50.5314 5.48087C55.9659 6.59817 60.909 10.8157 62.9645 13.1611C65.02 15.5064 66.3034 18.6771 66.1931 22.0693C66.0928 24.5153 64.3482 28.2396 63.3756 30.132Z" stroke="#682FFF" stroke-width="4" stroke-miterlimit="10" stroke-linecap="round"/>
<path d="M28.902 29.1842C28.902 29.1842 27.0282 29.703 27.2003 33.9534C27.3725 38.2039 29.8541 39.8202 29.8541 39.8202C29.8541 39.8202 33.3992 48.4807 36.762 52.1425C40.1248 55.8042 45.0272 57.2609 47.7316 57.2609C50.4462 57.2609 54.8725 55.6346 57.9416 51.913C61.0107 48.1914 65.1432 38.3735 65.1432 38.3735C65.1432 38.3735 67.3716 36.2982 67.3817 32.9657C67.402 27.9669 64.414 27.7075 64.414 27.7075" stroke="#682FFF" stroke-width="4" stroke-miterlimit="10" stroke-linecap="round"/>
<path d="M34.282 49.5862V61.943L41.0173 69.0823L47.6596 61.943L54.6842 69.0823L61.4711 61.8634L61.4402 47.8038" stroke="#682FFF" stroke-width="4" stroke-miterlimit="10" stroke-linecap="round"/>
<path d="M37.8284 97.4536L43.7391 72.7533L40.9746 69.0823" stroke="#682FFF" stroke-width="4" stroke-miterlimit="10" stroke-linecap="round"/>
<path d="M57.9247 97.4536L50.8319 72.7533L54.1493 69.0823" stroke="#682FFF" stroke-width="4" stroke-miterlimit="10" stroke-linecap="round"/>
<path d="M34.282 60.8073C34.282 60.8073 23.4438 63.4375 13.4338 72.7764C3.42378 82.1154 3.54648 98.6357 3.54648 98.6357" stroke="#682FFF" stroke-width="4" stroke-miterlimit="10" stroke-linecap="round"/>
<path d="M61.4711 60.8073C61.4711 60.8073 72.3094 63.4375 82.3194 72.7764C92.3294 82.1154 92.2067 98.6357 92.2067 98.6357" stroke="#682FFF" stroke-width="4" stroke-miterlimit="10" stroke-linecap="round"/>
</g>
<defs>
<clipPath id="clip0">
<rect width="95.7531" height="101" fill="white"/>
</clipPath>
</defs>
</svg>
