<svg width="111" height="94" viewBox="0 0 111 94" fill="none" xmlns="http://www.w3.org/2000/svg">
<path d="M40.5 89.2525C45.1944 89.2525 49 85.4266 49 80.7071C49 75.9876 45.1944 72.1616 40.5 72.1616C35.8056 72.1616 32 75.9876 32 80.7071C32 85.4266 35.8056 89.2525 40.5 89.2525Z" stroke="#682FFF" stroke-width="4" stroke-miterlimit="10" stroke-linecap="round" stroke-linejoin="round"/>
<path d="M98 80.7071C98 85.4265 94.4182 89.2525 90 89.2525C85.5818 89.2525 82 85.4265 82 80.7071C82 75.9877 85.5818 72.1616 90 72.1616C94.4182 72.1713 98 75.9877 98 80.7071Z" stroke="#682FFF" stroke-width="4" stroke-miterlimit="10" stroke-linecap="round" stroke-linejoin="round"/>
<path d="M82 81.6566H49" stroke="#682FFF" stroke-width="4" stroke-miterlimit="10" stroke-linecap="round" stroke-linejoin="round"/>
<path d="M31.4366 82.6061C31.4366 82.6061 26.2458 82.4479 26.0803 77.6459C26.0121 75.6544 25.9926 74.0072 26.0024 72.7695C26.0121 71.1596 27.0639 69.7264 28.6318 69.1588L47.7686 62.2723L56.6699 54.8739C60.205 51.9425 64.7238 50.3232 69.3985 50.3232H88.1359C94.4272 50.3232 100.28 53.3756 103.689 58.4288L105.861 61.6394C106.601 62.7469 107 64.0311 107 65.3433V75.2263C107 78.8557 103.923 81.7964 100.124 81.7964H98.7999" stroke="#682FFF" stroke-width="4" stroke-miterlimit="10" stroke-linecap="round" stroke-linejoin="round"/>
<path d="M27.5198 56.7227C34.672 56.7227 40.4699 50.9644 40.4699 43.8613C40.4699 36.7582 34.672 31 27.5198 31C20.3677 31 14.5698 36.7582 14.5698 43.8613C14.5698 50.9644 20.3677 56.7227 27.5198 56.7227Z" stroke="#682FFF" stroke-width="4" stroke-miterlimit="10" stroke-linecap="round" stroke-linejoin="round"/>
<path d="M2 69.5286L18.3082 52.9084" stroke="#682FFF" stroke-width="4" stroke-miterlimit="10" stroke-linecap="round" stroke-linejoin="round"/>
</svg>
