<svg width="69" height="59" viewBox="0 0 69 59" fill="none" xmlns="http://www.w3.org/2000/svg">
<path d="M9.48833 59H69C69 59 57.6405 31.9888 54.8425 25.5003C53.1302 22.3674 54.8425 20.069 54.8425 20.069C54.8425 20.069 61.5329 8.94095 63.0113 6.3387C64.4897 3.73645 62.4288 0 58.8497 0C55.2706 0 53.3641 4.41269 53.3641 4.41269C53.3641 4.41269 46.4398 15.9174 44.807 18.785C43.1741 21.6526 44.807 25.8384 44.807 25.8384L54.997 49.982H12.7188C9.09997 49.982 9.45302 47.1187 9.45302 47.1187V4.41269C9.45302 4.41269 9.49274 0 4.74858 0C0 0 0 4.41269 0 4.41269V49.982C0 59 9.48833 59 9.48833 59Z" fill="#CD2529"/>
<path d="M28.3943 47.1144C40.7248 46.5109 40.8792 35.1946 40.8792 35.1946V4.41697C40.8792 4.41697 40.5306 0.00427557 36.1748 0.00427557C31.819 -4.4452e-06 31.3909 4.41697 31.3909 4.41697V35.1988C31.3909 35.1988 31.5674 37.9894 28.3943 37.9894C25.2213 37.9894 25.1683 35.1988 25.1683 35.1988V4.41697C25.1683 4.41697 24.9741 0.00427557 20.4992 0.00427557C16.0242 -4.4452e-06 15.7903 4.41697 15.7903 4.41697L15.755 35.1988C15.755 35.1988 16.0286 46.7763 28.3943 47.1144Z" fill="#CD2529"/>
</svg>
