<svg width="49" height="78" viewBox="0 0 49 78" fill="none" xmlns="http://www.w3.org/2000/svg">
<g clip-path="url(#clip0)">
<path d="M45.99 52.2999C41.75 49.0499 39.01 43.9299 39.01 38.1699C39.01 32.6499 41.53 27.71 45.48 24.45" stroke="#4DE800" stroke-width="6" stroke-miterlimit="10" stroke-linecap="round" stroke-linejoin="round"/>
<path d="M36.67 59.27C30.39 54.46 26.34 46.88 26.34 38.35C26.34 30.17 30.07 22.86 35.92 18.03" stroke="#4DE800" stroke-width="6" stroke-miterlimit="10" stroke-linecap="round" stroke-linejoin="round"/>
<path d="M28.9 67.05C20.25 60.42 14.67 49.99 14.67 38.25C14.67 26.99 19.81 16.92 27.86 10.27" stroke="#4DE800" stroke-width="6" stroke-miterlimit="10" stroke-linecap="round" stroke-linejoin="round"/>
<path d="M21 74.83C10.06 66.45 3 53.24 3 38.39C3 24.14 9.5 11.41 19.69 3" stroke="#4DE800" stroke-width="6" stroke-miterlimit="10" stroke-linecap="round" stroke-linejoin="round"/>
</g>
<defs>
<clipPath id="clip0">
<rect width="48.99" height="77.83" fill="white"/>
</clipPath>
</defs>
</svg>
