<svg width="98" height="103" viewBox="0 0 98 103" fill="none" xmlns="http://www.w3.org/2000/svg">
<path d="M62.475 71.119C63.8281 71.119 64.925 69.7466 64.925 68.0536C64.925 66.3606 63.8281 64.9881 62.475 64.9881C61.1219 64.9881 60.025 66.3606 60.025 68.0536C60.025 69.7466 61.1219 71.119 62.475 71.119Z" stroke="#682FFF" stroke-width="4" stroke-miterlimit="10"/>
<path d="M73.5 80.9286C74.8531 80.9286 75.95 79.8306 75.95 78.4762C75.95 77.1218 74.8531 76.0238 73.5 76.0238C72.1469 76.0238 71.05 77.1218 71.05 78.4762C71.05 79.8306 72.1469 80.9286 73.5 80.9286Z" stroke="#682FFF" stroke-width="4" stroke-miterlimit="10"/>
<path d="M62.475 80.9286L74.725 67.4405" stroke="#682FFF" stroke-width="4" stroke-miterlimit="10" stroke-linecap="round"/>
<path d="M69.2125 95.6429C81.0521 95.6429 90.65 85.7611 90.65 73.5714C90.65 61.3817 81.0521 51.5 69.2125 51.5C57.3729 51.5 47.775 61.3817 47.775 73.5714C47.775 85.7611 57.3729 95.6429 69.2125 95.6429Z" stroke="#682FFF" stroke-width="4" stroke-miterlimit="10" stroke-linecap="round"/>
<path d="M50.5 95.6429H4.89999V4.90476H51.8937L67.375 19.0214V44.5" stroke="#682FFF" stroke-width="4" stroke-miterlimit="10" stroke-linecap="round"/>
<path d="M67.375 19.619H51.5363L51.45 4.90476" stroke="#682FFF" stroke-width="4" stroke-miterlimit="10" stroke-linecap="round"/>
<path d="M15.925 36.7857H56.35" stroke="#682FFF" stroke-width="4" stroke-miterlimit="10" stroke-linecap="round"/>
<path d="M15.925 47.8214H47.775" stroke="#682FFF" stroke-width="4" stroke-miterlimit="10" stroke-linecap="round"/>
<path d="M15.925 69.8929H39.2" stroke="#682FFF" stroke-width="4" stroke-miterlimit="10" stroke-linecap="round"/>
<path d="M15.925 80.9286H39.2" stroke="#682FFF" stroke-width="4" stroke-miterlimit="10" stroke-linecap="round"/>
</svg>
