<svg width="351" height="100" viewBox="0 0 351 100" fill="none" xmlns="http://www.w3.org/2000/svg">
<g clip-path="url(#clip0)">
<path d="M166.701 12.0261C164.414 8.45751 161.093 5.69188 156.821 3.79162C152.575 1.90028 147.528 0.936768 141.814 0.936768H118.653V67.4547H131.8V48.5503H141.822C147.537 48.5503 152.584 47.5957 156.83 45.6954C161.102 43.7952 164.431 41.0028 166.71 37.4164C168.998 33.83 170.146 29.5655 170.146 24.748C170.146 19.8591 168.989 15.5768 166.701 12.0261ZM156.91 24.7391C156.91 28.7359 155.584 31.8494 152.984 33.9906C150.35 36.1495 146.415 37.2469 141.262 37.2469H131.8V12.2402H141.262C146.415 12.2402 150.359 13.3375 152.984 15.4965C155.584 17.6287 156.91 20.7423 156.91 24.7391Z" fill="white"/>
<path d="M189.417 56.2405V39.1917H216.744V28.1649H189.417V12.151H220.767V0.936768H176.27V67.4547H222.075V56.2405H189.417Z" fill="white"/>
<path d="M273.026 52.7077C269.252 55.3484 264.917 56.7044 260.057 56.7044C255.686 56.7044 251.707 55.732 248.263 53.8228C244.818 51.9136 242.085 49.2283 240.154 45.8292C238.213 42.4302 237.234 38.5137 237.234 34.1957C237.234 29.8778 238.213 25.9613 240.154 22.5622C242.094 19.1632 244.818 16.4778 248.263 14.5687C251.716 12.6595 255.686 11.687 260.057 11.687C264.57 11.687 268.637 12.8557 272.225 15.1129L279.924 5.92381C278.197 4.73727 276.346 3.7113 274.352 2.86377C269.884 0.963511 264.881 0 259.496 0C252.838 0 246.749 1.48095 241.373 4.40717C236.006 7.34231 231.715 11.4462 228.627 16.6117C225.547 21.7861 223.989 27.701 223.989 34.1868C223.989 40.6727 225.538 46.5786 228.591 51.7531C231.644 56.9275 235.908 61.0313 241.284 63.9575C246.66 66.8838 252.758 68.3736 259.407 68.3736C264.801 68.3736 269.812 67.419 274.307 65.5277C276.462 64.6266 278.455 63.5115 280.289 62.2089L273.026 52.7077Z" fill="white"/>
<path d="M346.354 16.6206C343.274 11.4551 338.966 7.34231 333.554 4.41609C328.151 1.48095 322.009 0 315.297 0C308.586 0 302.444 1.48095 297.041 4.40717C291.638 7.34231 287.33 11.464 284.25 16.6652C281.17 21.8664 279.604 27.7634 279.604 34.1868C279.604 40.6102 281.161 46.5073 284.25 51.7085C287.33 56.9185 291.638 61.0402 297.041 63.9665C302.444 66.8927 308.586 68.3826 315.297 68.3826C322.009 68.3826 328.151 66.8927 333.554 63.9665C338.966 61.0313 343.265 56.9275 346.354 51.7531C349.442 46.5876 351 40.6727 351 34.1868C351 27.701 349.433 21.7861 346.354 16.6206ZM337.755 34.1868C337.755 38.4423 336.776 42.3499 334.835 45.7757C332.895 49.2015 330.198 51.9047 326.816 53.8228C323.424 55.732 319.543 56.7044 315.297 56.7044C311.052 56.7044 307.18 55.732 303.788 53.8228C300.397 51.9136 297.7 49.2105 295.768 45.7757C293.828 42.3499 292.849 38.4512 292.849 34.1868C292.849 29.9224 293.828 26.0237 295.768 22.5979C297.709 19.1721 300.406 16.4689 303.788 14.5597C307.188 12.6505 311.06 11.6781 315.297 11.6781C319.543 11.6781 323.415 12.6505 326.816 14.5597C330.198 16.4689 332.904 19.1721 334.835 22.5979C336.776 26.0327 337.755 29.9313 337.755 34.1868Z" fill="white"/>
<path d="M129.717 88.2416H122.863V100H118.653V84.8425H129.735L129.717 88.2416Z" fill="white"/>
<path d="M155.975 97.0559H149.584L148.391 100H144.03L150.706 84.8425H154.925L161.628 100H157.177L155.975 97.0559ZM154.729 93.8888L152.78 89.0356L150.83 93.8888H154.729Z" fill="white"/>
<path d="M187.913 85.5295C188.919 85.9845 189.702 86.6357 190.245 87.4833C190.797 88.3219 191.064 89.3122 191.064 90.4541C191.064 91.596 190.797 92.5863 190.245 93.4249C189.693 94.2635 188.919 94.9148 187.913 95.3609C186.907 95.8158 185.714 96.0478 184.343 96.0478H181.709V100.009H177.427V84.8425H184.343C185.714 84.8425 186.907 85.0745 187.913 85.5295ZM186.07 92.0867C186.515 91.7031 186.747 91.1589 186.747 90.4541C186.747 89.7493 186.515 89.1962 186.07 88.8126C185.625 88.42 184.966 88.2237 184.085 88.2237H181.709V92.6666H184.085C184.966 92.6577 185.625 92.4703 186.07 92.0867Z" fill="white"/>
<path d="M218.132 97.0559H211.741L210.548 100H206.187L212.863 84.8425H217.073L223.775 100H219.325L218.132 97.0559ZM216.877 93.8888L214.928 89.0356L212.987 93.8888H216.877Z" fill="white"/>
<path d="M255.686 84.8425V100H251.405V94.0851H245.575V100H241.293V84.8425H245.575V90.5433H251.405V84.8425H255.686Z" fill="white"/>
<path d="M286.653 88.2416H282.025V100H277.823V88.2416H273.168V84.8425H286.653V88.2416Z" fill="white"/>
<path d="M303.397 84.8425H307.607V93.7461L313.855 84.8425H317.879V100H313.669V91.1232L307.438 100H303.397V84.8425Z" fill="white"/>
<path d="M346.06 84.8425V100H341.841V96.1816H339.509L337.025 100H332.53L335.592 95.5571C334.586 95.1111 333.812 94.4687 333.278 93.6212C332.753 92.7737 332.477 91.7745 332.477 90.5968C332.477 89.4103 332.753 88.3843 333.305 87.519C333.847 86.6536 334.631 85.9845 335.663 85.5295C336.687 85.0656 337.88 84.8336 339.25 84.8336H346.06V84.8425ZM336.803 90.5344C336.803 91.3016 337.016 91.8815 337.444 92.2741C337.871 92.6666 338.485 92.8718 339.295 92.8718H341.841V88.2148H339.331C337.648 88.2148 336.803 88.991 336.803 90.5344Z" fill="white"/>
<path d="M98.8742 67.7848L98.1532 61.6826C96.7825 50.0937 93.1063 40.7173 87.3205 33.3571C82.0866 26.6928 75.1793 21.786 66.7766 18.4673V0.865356L60.6882 1.58799C49.1256 2.96189 39.7704 6.64642 32.427 12.4453C25.7778 17.6911 20.8822 24.6141 17.5709 33.0359H0L0.720995 39.1382C2.09178 50.7182 5.76796 60.1035 11.5537 67.4725C16.7965 74.1368 23.6949 79.0436 32.0976 82.3624V99.9554L38.186 99.2327C49.7487 97.8588 59.1038 94.1743 66.4473 88.3754C73.0964 83.1207 77.9921 76.2066 81.3033 67.7848H98.8742ZM59.7358 79.8019C55.2585 83.3348 49.7131 85.8863 43.0105 87.3762V51.1285H32.1065V70.4255C27.3177 67.9632 23.2855 64.7604 20.1167 60.728C16.5918 56.2405 14.055 50.6825 12.5596 43.9736H48.725V33.0449H29.4718C31.9285 28.2451 35.124 24.2037 39.1474 21.0277C43.6247 17.4949 49.1701 14.9523 55.8727 13.4535V49.6922H66.7766V30.4041C71.5654 32.8664 75.5977 36.0692 78.7665 40.1017C82.2914 44.5891 84.8282 50.1472 86.3236 56.865H50.1225V67.7937H69.4025C66.9546 72.5934 63.7591 76.6259 59.7358 79.8019Z" fill="white"/>
</g>
<defs>
<clipPath id="clip0">
<rect width="351" height="100" fill="white"/>
</clipPath>
</defs>
</svg>
