<svg width="66" height="67" viewBox="0 0 66 67" fill="none" xmlns="http://www.w3.org/2000/svg">
<g clip-path="url(#clip0)">
<path fill-rule="evenodd" clip-rule="evenodd" d="M28.6338 0.289418C34.2303 -0.461649 40.0168 0.248075 45.2568 2.38758C51.7459 5.01287 57.3762 9.79145 61.0382 15.831C56.969 19.2039 52.9642 22.6561 48.9358 26.0772C44.4797 29.8704 40.0269 33.6706 35.5708 37.4638C34.719 38.1528 33.9316 38.9384 33.0356 39.562L32.9949 39.5723C33.0017 33.7395 32.9949 27.9066 33.0085 22.0704C32.9881 21.7878 33.0967 21.4227 32.7981 21.2538C26.7129 16.0859 20.6481 10.8836 14.5324 5.73638C18.7204 2.82513 23.6041 0.961244 28.6338 0.289418Z" fill="#CE317A"/>
<path fill-rule="evenodd" clip-rule="evenodd" d="M4.97199 15.7758L32.2958 39.0761C32.53 39.2277 32.7065 39.5619 32.9983 39.5722L33.039 39.5619L32.6861 57.8597L65.586 30.084L65.6674 29.7808C65.7692 29.9806 65.8609 30.1942 65.8643 30.4285C66.3326 35.6894 65.5894 41.0709 63.6379 45.9735C61.6729 50.9554 58.503 55.4411 54.4881 58.9277C50.7447 62.2007 46.2648 64.6021 41.4863 65.8837C35.2892 67.5512 28.6101 67.3514 22.5317 65.2808C17.7023 63.6512 13.2665 60.8502 9.66907 57.2016C6.04105 53.5256 3.26489 48.9847 1.663 44.0407C-0.807717 36.5094 -0.526028 28.0857 2.47073 20.7508C3.16308 19.0213 4.02511 17.371 4.97199 15.7758Z" fill="#11913F"/>
</g>
<defs>
<clipPath id="clip0">
<rect width="66" height="67" fill="white"/>
</clipPath>
</defs>
</svg>
