<svg width="53" height="85" viewBox="0 0 53 85" fill="none" xmlns="http://www.w3.org/2000/svg">
<path d="M30.0697 64.7055C30.0697 63.8885 30.0697 63.0577 30.0697 62.2224C30.0697 60.2368 30.0791 58.2513 30.0603 56.2657C30.0557 55.8503 30.1727 55.7134 30.6173 55.7179C37.5716 55.7316 44.526 55.7316 51.4803 55.7179C51.9436 55.7179 52.0185 55.8868 52.0185 56.2839C52.0092 62.6058 52.0092 68.9323 52.0185 75.2542C52.0185 75.6057 51.9062 75.8567 51.6535 76.1032C46.7255 80.969 40.8054 83.9131 33.8324 84.7667C18.1453 86.6884 3.72643 76.5414 0.581525 61.3871C-2.16091 48.1773 5.00873 34.5841 17.6118 29.0656C21.351 27.4269 25.2587 26.5459 29.363 26.4455C29.8965 26.4318 30.0791 26.5322 30.0791 27.0982C30.0603 34.0044 30.0603 40.9105 30.0744 47.8167C30.0744 48.3005 29.9667 48.474 29.4239 48.4877C21.3791 48.6977 14.5651 54.6498 13.3951 62.4643C12.066 71.3332 18.1312 79.6088 27.1541 81.074C32.77 81.9869 37.7354 80.508 41.8631 76.6509C44.3669 74.3093 45.1578 71.4063 44.1188 68.1837C43.0658 64.9201 40.665 63.0167 37.2066 62.5191C34.7777 62.1676 32.5547 62.8112 30.65 64.3678C30.5003 64.491 30.3411 64.6097 30.1867 64.7284C30.182 64.7375 30.1539 64.7238 30.0697 64.7055Z" fill="#1479BF"/>
<path d="M40.8082 0C42.9778 3.1473 44.8803 6.43682 46.2631 9.97868C48.5472 15.8237 49.7059 21.8797 49.4961 28.1146C49.1957 37.1482 46.4968 45.4936 41.2802 53.0545C40.7986 53.7564 40.7796 53.7518 40.2884 53.0728C36.7408 48.1408 34.4138 42.6858 33.1502 36.8454C30.3274 23.7883 32.8641 11.6808 40.3456 0.490905C40.4696 0.316565 40.5411 0.091758 40.8082 0ZM40.6937 4.17958C34.9098 14.2913 32.8069 24.9444 34.8764 36.3866C34.9193 35.5287 34.9765 34.7625 34.986 33.9917C35.0719 28.7202 36.1257 23.6277 38.0187 18.6865C38.6863 16.9385 39.4063 15.2089 40.3123 13.5618C40.4219 13.3645 40.4601 13.0342 40.7319 13.0342C40.956 13.0342 41.018 13.3416 41.1133 13.5251C44.1174 19.3288 46.0009 25.4261 46.4205 31.9226C46.5159 33.3724 46.5254 34.8267 46.5779 36.2765C48.8953 24.9582 46.3299 13.025 40.6937 4.17958ZM40.7843 51.6276C44.4512 45.2504 43.507 37.0106 40.751 32.4594C37.5419 36.9418 37.5562 47.6866 40.7843 51.6276Z" fill="#167ABF"/>
</svg>
